<?xml version="1.0" encoding="UTF-8" standalone="no"?>
<!-- Generator: Adobe Illustrator 16.0.3, SVG Export Plug-In . SVG Version: 6.00 Build 0)  -->

<svg
   xmlns:dc="http://purl.org/dc/elements/1.1/"
   xmlns:cc="http://creativecommons.org/ns#"
   xmlns:rdf="http://www.w3.org/1999/02/22-rdf-syntax-ns#"
   xmlns:svg="http://www.w3.org/2000/svg"
   xmlns="http://www.w3.org/2000/svg"
   xmlns:sodipodi="http://sodipodi.sourceforge.net/DTD/sodipodi-0.dtd"
   xmlns:inkscape="http://www.inkscape.org/namespaces/inkscape"
   version="1.1"
   id="Layer_1"
   x="0px"
   y="0px"
   width="600"
   height="520"
   viewBox="0 0 600 519.99999"
   enable-background="new 0 0 1000 1405.488"
   xml:space="preserve"
   inkscape:version="0.48+devel r9931"
   sodipodi:docname="clogo.svg"><metadata
   id="metadata3771"><rdf:RDF><cc:Work
       rdf:about=""><dc:format>image/svg+xml</dc:format><dc:type
         rdf:resource="http://purl.org/dc/dcmitype/StillImage" /></cc:Work></rdf:RDF></metadata><defs
   id="defs3769" /><sodipodi:namedview
   pagecolor="#ffffff"
   bordercolor="#666666"
   borderopacity="1"
   objecttolerance="10"
   gridtolerance="10"
   guidetolerance="10"
   inkscape:pageopacity="0"
   inkscape:pageshadow="2"
   inkscape:window-width="1676"
   inkscape:window-height="1006"
   id="namedview3767"
   showgrid="false"
   inkscape:zoom="1.4327273"
   inkscape:cx="63.769033"
   inkscape:cy="275"
   inkscape:window-x="4"
   inkscape:window-y="0"
   inkscape:window-maximized="1"
   inkscape:current-layer="Layer_1" />

<path
   d="m 368.87439,217.94754 c 0,0 -5.30658,-49.47606 -54.39677,-50.84996 -49.0902,-1.3739 -74.30179,37.10802 -74.30179,92.08065 0,54.97264 27.86292,98.95309 75.62696,98.95309 47.76405,0 53.0716,-54.97264 53.0716,-54.97264 l 91.54766,5.49659 c 0,0 5.39035,49.6495 -32.91908,87.52924 -38.31043,37.87681 -85.33295,44.06522 -118.17116,43.80798 -32.83722,-0.26212 -78.36795,0.51448 -122.39614,-44.58068 -44.03015,-45.09516 -51.50085,-88.90314 -51.50085,-131.93648 0,-43.03528 8.34961,-100.04441 60.70112,-143.27555 35.58016,-29.376172 71.64654,-40.199789 107.71975,-40.199789 150.59523,0 160.70949,138.894659 160.70949,138.894659 l -95.6908,-0.94711 z"
   id="path3589"
   inkscape:connector-curvature="0"
   style="fill:#4174ab;fill-rule:nonzero;fill-opacity:1" />




</svg>