<?xml version="1.0" encoding="UTF-8" standalone="no"?>
<!-- Created with Inkscape (http://www.inkscape.org/) -->

<svg
   xmlns:dc="http://purl.org/dc/elements/1.1/"
   xmlns:cc="http://creativecommons.org/ns#"
   xmlns:rdf="http://www.w3.org/1999/02/22-rdf-syntax-ns#"
   xmlns:svg="http://www.w3.org/2000/svg"
   xmlns="http://www.w3.org/2000/svg"
   xmlns:sodipodi="http://sodipodi.sourceforge.net/DTD/sodipodi-0.dtd"
   xmlns:inkscape="http://www.inkscape.org/namespaces/inkscape"
   width="122.70614"
   height="100.7933"
   id="svg2"
   sodipodi:version="0.32"
   inkscape:version="0.48+devel r9931"
   sodipodi:docname="igraph2.svg"
   inkscape:output_extension="org.inkscape.output.svg.inkscape"
   version="1.0"
   inkscape:export-filename="/home/csardi/igraph.png"
   inkscape:export-xdpi="90"
   inkscape:export-ydpi="90">
  <defs
     id="defs4">
    <inkscape:perspective
       sodipodi:type="inkscape:persp3d"
       inkscape:vp_x="0 : 526.18109 : 1"
       inkscape:vp_y="0 : 1000 : 0"
       inkscape:vp_z="744.09448 : 526.18109 : 1"
       inkscape:persp3d-origin="372.04724 : 350.78739 : 1"
       id="perspective10" />
  </defs>
  <sodipodi:namedview
     id="base"
     pagecolor="#ffffff"
     bordercolor="#666666"
     borderopacity="1.0"
     gridtolerance="10000"
     guidetolerance="10"
     objecttolerance="10"
     inkscape:pageopacity="0.0"
     inkscape:pageshadow="2"
     inkscape:zoom="1.4"
     inkscape:cx="156.86406"
     inkscape:cy="21.619855"
     inkscape:document-units="px"
     inkscape:current-layer="layer1"
     showgrid="false"
     inkscape:window-width="1400"
     inkscape:window-height="997"
     inkscape:window-x="0"
     inkscape:window-y="0"
     fit-margin-top="0"
     fit-margin-left="0"
     fit-margin-right="0"
     fit-margin-bottom="0"
     inkscape:window-maximized="0" />
  <metadata
     id="metadata7">
    <rdf:RDF>
      <cc:Work
         rdf:about="">
        <dc:format>image/svg+xml</dc:format>
        <dc:type
           rdf:resource="http://purl.org/dc/dcmitype/StillImage" />
        <dc:title />
      </cc:Work>
    </rdf:RDF>
  </metadata>
  <g
     inkscape:label="Layer 1"
     inkscape:groupmode="layer"
     id="layer1"
     transform="translate(-87.605122,-405.28924)">
    <g
       id="g3185"
       transform="matrix(1.1646944,0,0,1.1646944,120.00494,-10.456105)">
      <g
         id="g2399"
         transform="translate(-7.4710638,2.2987889)">
        <g
           id="g2400"
           transform="matrix(1.2670736,0,0,1.2670736,-31.814283,-116.48058)">
          <g
             id="g2401"
             transform="translate(-80.346363,-13.068384)">
            <path
               id="path4769"
               d="m 126.36164,413.77884 c 2.4031,1.1e-4 4.42391,0.81936 6.06242,2.45774 1.63846,1.6386 2.45771,3.6048 2.45774,5.89857 -3e-5,2.40323 -0.81928,4.42404 -2.45774,6.06243 -1.63851,1.52936 -3.65932,2.29399 -6.06242,2.29389 -2.29391,1e-4 -4.26009,-0.81915 -5.89857,-2.45774 -1.52928,-1.63839 -2.29391,-3.60459 -2.29389,-5.89858 -2e-5,-2.29377 0.81923,-4.25997 2.45773,-5.89857 1.63849,-1.63838 3.55005,-2.45763 5.73473,-2.45774"
               style="font-size:144px;font-style:normal;font-variant:normal;font-weight:normal;font-stretch:normal;fill:#000000;fill-opacity:1;stroke:#959292;stroke-width:1.13784242px;stroke-linecap:butt;stroke-linejoin:miter;stroke-opacity:1;font-family:FreeSerif;-inkscape-font-specification:FreeSerif"
               inkscape:connector-curvature="0" />
            <path
               sodipodi:nodetypes="cc"
               style="fill:none;stroke:#959292;stroke-width:2.27568483;stroke-linecap:butt;stroke-linejoin:miter;stroke-miterlimit:4;stroke-opacity:1;stroke-dasharray:none"
               d="m 132.7806,415.77889 8.67591,-22.31814"
               id="path3165"
               inkscape:connector-curvature="0" />
            <path
               style="fill:none;stroke:#959292;stroke-width:2.84460616;stroke-linecap:butt;stroke-linejoin:miter;stroke-miterlimit:4;stroke-opacity:1;stroke-dasharray:none"
               d="m 123.18415,428.91087 -16.16245,13.8896"
               id="path3175"
               inkscape:connector-curvature="0" />
            <path
               style="fill:none;stroke:#959292;stroke-width:2.84460616;stroke-linecap:butt;stroke-linejoin:miter;stroke-miterlimit:4;stroke-opacity:1;stroke-dasharray:none"
               d="m 135.81105,422.34488 20.4556,6.566"
               id="path3177"
               sodipodi:nodetypes="cc"
               inkscape:connector-curvature="0" />
            <path
               style="fill:none;stroke:#959292;stroke-width:3.41352725;stroke-linecap:butt;stroke-linejoin:miter;stroke-miterlimit:4;stroke-opacity:1;stroke-dasharray:none"
               d="m 123.18415,415.77889 -8.33376,-27.02158"
               id="path3179"
               inkscape:connector-curvature="0" />
            <path
               sodipodi:nodetypes="cc"
               style="fill:none;stroke:#959292;stroke-width:2.27568483;stroke-linecap:butt;stroke-linejoin:miter;stroke-miterlimit:4;stroke-opacity:1;stroke-dasharray:none"
               d="M 120.65877,421.08219 97.667257,408.32395"
               id="path3181"
               inkscape:connector-curvature="0" />
            <path
               sodipodi:type="arc"
               style="fill:#f50302;fill-opacity:1;stroke:#959292;stroke-width:3.41352725;stroke-miterlimit:4;stroke-opacity:1;stroke-dasharray:none;stroke-dashoffset:0"
               id="path2387"
               sodipodi:cx="125.82713"
               sodipodi:cy="408.95813"
               sodipodi:rx="14.647212"
               sodipodi:ry="14.647212"
               d="m 140.47435,408.95813 c 0,8.08943 -6.55778,14.64721 -14.64722,14.64721 -8.08943,0 -14.64721,-6.55778 -14.64721,-14.64721 0,-8.08943 6.55778,-14.64721 14.64721,-14.64721 8.08944,0 14.64722,6.55778 14.64722,14.64721 z"
               transform="translate(1.7132959,12.692251)" />
            <path
               transform="translate(16.320141,-17.364162)"
               d="m 131.38297,408.95813 c 0,3.06841 -2.48743,5.55584 -5.55584,5.55584 -3.0684,0 -5.55584,-2.48743 -5.55584,-5.55584 0,-3.06841 2.48744,-5.55584 5.55584,-5.55584 3.06841,0 5.55584,2.48743 5.55584,5.55584 z"
               sodipodi:ry="5.5558391"
               sodipodi:rx="5.5558391"
               sodipodi:cy="408.95813"
               sodipodi:cx="125.82713"
               id="path3159"
               style="fill:#fff000;fill-opacity:1;stroke:#959292;stroke-width:2.27568483;stroke-miterlimit:4;stroke-opacity:1;stroke-dasharray:none;stroke-dashoffset:0"
               sodipodi:type="arc" />
            <path
               sodipodi:type="arc"
               style="fill:#fff000;fill-opacity:1;stroke:#959292;stroke-width:3.41352725;stroke-miterlimit:4;stroke-opacity:1;stroke-dasharray:none;stroke-dashoffset:0"
               id="path3167"
               sodipodi:cx="125.82713"
               sodipodi:cy="408.95813"
               sodipodi:rx="7.5761442"
               sodipodi:ry="7.5761442"
               d="m 133.40328,408.95813 c 0,4.18419 -3.39196,7.57614 -7.57615,7.57614 -4.18419,0 -7.57614,-3.39195 -7.57614,-7.57614 0,-4.18419 3.39195,-7.57614 7.57614,-7.57614 4.18419,0 7.57615,3.39195 7.57615,7.57614 z"
               transform="translate(37.43447,18.474683)" />
            <path
               transform="matrix(1.1238184,0,0,1.1238184,-23.941993,-63.468356)"
               d="m 133.40328,408.95813 c 0,4.18419 -3.39196,7.57614 -7.57615,7.57614 -4.18419,0 -7.57614,-3.39195 -7.57614,-7.57614 0,-4.18419 3.39195,-7.57614 7.57614,-7.57614 4.18419,0 7.57615,3.39195 7.57615,7.57614 z"
               sodipodi:ry="7.5761442"
               sodipodi:rx="7.5761442"
               sodipodi:cy="408.95813"
               sodipodi:cx="125.82713"
               id="path3169"
               style="fill:#fff000;fill-opacity:1;stroke:#959292;stroke-width:3.03743672;stroke-miterlimit:4;stroke-opacity:1;stroke-dasharray:none;stroke-dashoffset:0"
               sodipodi:type="arc" />
            <path
               transform="translate(-24.986126,35.072579)"
               d="m 133.40328,408.95813 c 0,4.18419 -3.39196,7.57614 -7.57615,7.57614 -4.18419,0 -7.57614,-3.39195 -7.57614,-7.57614 0,-4.18419 3.39195,-7.57614 7.57614,-7.57614 4.18419,0 7.57615,3.39195 7.57615,7.57614 z"
               sodipodi:ry="7.5761442"
               sodipodi:rx="7.5761442"
               sodipodi:cy="408.95813"
               sodipodi:cx="125.82713"
               id="path3173"
               style="fill:#fff000;fill-opacity:1;stroke:#959292;stroke-width:3.18595886;stroke-miterlimit:4;stroke-opacity:1;stroke-dasharray:none;stroke-dashoffset:0"
               sodipodi:type="arc" />
            <path
               sodipodi:type="arc"
               style="fill:#fff000;fill-opacity:1;stroke:#959292;stroke-width:2.27568483;stroke-miterlimit:4;stroke-opacity:1;stroke-dasharray:none;stroke-dashoffset:0"
               id="path3183"
               sodipodi:cx="125.82713"
               sodipodi:cy="408.95813"
               sodipodi:rx="5.5558391"
               sodipodi:ry="5.5558391"
               d="m 131.38297,408.95813 c 0,3.06841 -2.48743,5.55584 -5.55584,5.55584 -3.0684,0 -5.55584,-2.48743 -5.55584,-5.55584 0,-3.06841 2.48744,-5.55584 5.55584,-5.55584 3.06841,0 5.55584,2.48743 5.55584,5.55584 z"
               transform="translate(-29.737064,-1.956026)" />
          </g>
        </g>
      </g>
    </g>
  </g>
</svg>
