<?xml version="1.0" encoding="UTF-8" standalone="no"?>
<!-- Created with Inkscape (http://www.inkscape.org/) -->

<svg
   xmlns:dc="http://purl.org/dc/elements/1.1/"
   xmlns:cc="http://creativecommons.org/ns#"
   xmlns:rdf="http://www.w3.org/1999/02/22-rdf-syntax-ns#"
   xmlns:svg="http://www.w3.org/2000/svg"
   xmlns="http://www.w3.org/2000/svg"
   xmlns:sodipodi="http://sodipodi.sourceforge.net/DTD/sodipodi-0.dtd"
   xmlns:inkscape="http://www.inkscape.org/namespaces/inkscape"
   width="124.53926"
   height="102.79433"
   id="svg2"
   sodipodi:version="0.32"
   inkscape:version="0.48.2 r9819"
   sodipodi:docname="igraph3.svg"
   inkscape:output_extension="org.inkscape.output.svg.inkscape"
   version="1.0"
   inkscape:export-filename="/home/csardi/igraph.png"
   inkscape:export-xdpi="90"
   inkscape:export-ydpi="90">
  <defs
     id="defs4">
    <inkscape:perspective
       sodipodi:type="inkscape:persp3d"
       inkscape:vp_x="0 : 526.18109 : 1"
       inkscape:vp_y="0 : 1000 : 0"
       inkscape:vp_z="744.09448 : 526.18109 : 1"
       inkscape:persp3d-origin="372.04724 : 350.78739 : 1"
       id="perspective10" />
  </defs>
  <sodipodi:namedview
     id="base"
     pagecolor="#141fbe"
     bordercolor="#666666"
     borderopacity="1.0"
     gridtolerance="10000"
     guidetolerance="10"
     objecttolerance="10"
     inkscape:pageopacity="1"
     inkscape:pageshadow="2"
     inkscape:zoom="7.4084152"
     inkscape:cx="62.148164"
     inkscape:cy="51.3748"
     inkscape:document-units="px"
     inkscape:current-layer="layer1"
     showgrid="false"
     inkscape:window-width="1400"
     inkscape:window-height="997"
     inkscape:window-x="0"
     inkscape:window-y="0"
     fit-margin-top="0"
     fit-margin-left="0"
     fit-margin-right="0"
     fit-margin-bottom="0"
     inkscape:window-maximized="0" />
  <metadata
     id="metadata7">
    <rdf:RDF>
      <cc:Work
         rdf:about="">
        <dc:format>image/svg+xml</dc:format>
        <dc:type
           rdf:resource="http://purl.org/dc/dcmitype/StillImage" />
        <dc:title />
      </cc:Work>
    </rdf:RDF>
  </metadata>
  <g
     inkscape:groupmode="layer"
     id="layer3"
     inkscape:label="Layer"
     style="display:inline">
    <path
       sodipodi:nodetypes="cc"
       style="fill:none;stroke:#ffffff;stroke-width:5;stroke-linecap:butt;stroke-linejoin:miter;stroke-miterlimit:4;stroke-opacity:1;stroke-dasharray:none"
       d="M 65.374275,46.927922 78.17778,13.991849"
       id="path4063"
       inkscape:connector-curvature="0" />
    <path
       style="fill:none;stroke:#ffffff;stroke-width:5;stroke-linecap:butt;stroke-linejoin:miter;stroke-miterlimit:4;stroke-opacity:1;stroke-dasharray:none"
       d="M 51.212281,66.307488 27.360488,86.805113"
       id="path4065"
       inkscape:connector-curvature="0" />
    <path
       style="fill:none;stroke:#ffffff;stroke-width:5;stroke-linecap:butt;stroke-linejoin:miter;stroke-miterlimit:4;stroke-opacity:1;stroke-dasharray:none"
       d="M 69.846472,56.617705 100.0339,66.307502"
       id="path4067"
       sodipodi:nodetypes="cc"
       inkscape:connector-curvature="0" />
    <path
       style="fill:none;stroke:#ffffff;stroke-width:5;stroke-linecap:butt;stroke-linejoin:miter;stroke-miterlimit:4;stroke-opacity:1;stroke-dasharray:none"
       d="M 51.212281,46.927922 38.913705,7.0507309"
       id="path4069"
       inkscape:connector-curvature="0" />
    <path
       sodipodi:nodetypes="cc"
       style="fill:none;stroke:#ffffff;stroke-width:5;stroke-linecap:butt;stroke-linejoin:miter;stroke-miterlimit:4;stroke-opacity:1;stroke-dasharray:none"
       d="M 47.485442,54.754286 13.555636,35.926268"
       id="path4071"
       inkscape:connector-curvature="0" />
    <path
       transform="matrix(1.4757535,0,0,1.4757535,-106.49265,-592.28445)"
       d="m 131.38297,408.95813 a 5.5558391,5.5558391 0 1 1 -11.11168,0 5.5558391,5.5558391 0 1 1 11.11168,0 z"
       sodipodi:ry="5.5558391"
       sodipodi:rx="5.5558391"
       sodipodi:cy="408.95813"
       sodipodi:cx="125.82713"
       id="path4075"
       style="fill:none;stroke:#ffffff;stroke-width:3.38809966999999990;stroke-miterlimit:4;stroke-opacity:1;stroke-dasharray:none;stroke-dashoffset:0"
       sodipodi:type="arc" />
    <path
       sodipodi:type="arc"
       style="fill:none;stroke:#ffffff;stroke-width:3.38809966999999990;stroke-miterlimit:4;stroke-opacity:1;stroke-dasharray:none;stroke-dashoffset:0"
       id="path4077"
       sodipodi:cx="125.82713"
       sodipodi:cy="408.95813"
       sodipodi:rx="7.5761442"
       sodipodi:ry="7.5761442"
       d="m 133.40328,408.95813 a 7.5761442,7.5761442 0 1 1 -15.15229,0 7.5761442,7.5761442 0 1 1 15.15229,0 z"
       transform="matrix(1.4757535,0,0,1.4757535,-75.33311,-539.39515)" />
    <path
       transform="matrix(1.6584789,0,0,1.6584789,-165.90964,-660.32288)"
       d="m 133.40328,408.95813 a 7.5761442,7.5761442 0 1 1 -15.15229,0 7.5761442,7.5761442 0 1 1 15.15229,0 z"
       sodipodi:ry="7.5761442"
       sodipodi:rx="7.5761442"
       sodipodi:cy="408.95813"
       sodipodi:cx="125.82713"
       id="path4079"
       style="fill:none;stroke:#ffffff;stroke-width:3.01481055999999992;stroke-miterlimit:4;stroke-opacity:1;stroke-dasharray:none;stroke-dashoffset:0"
       sodipodi:type="arc" />
    <path
       transform="matrix(1.4757535,0,0,1.4757535,-167.45052,-514.90075)"
       d="m 133.40328,408.95813 a 7.5761442,7.5761442 0 1 1 -15.15229,0 7.5761442,7.5761442 0 1 1 15.15229,0 z"
       sodipodi:ry="7.5761442"
       sodipodi:rx="7.5761442"
       sodipodi:cy="408.95813"
       sodipodi:cx="125.82713"
       id="path4081"
       style="fill:none;stroke:#ffffff;stroke-width:3.38809966999999990;stroke-miterlimit:4;stroke-opacity:1;stroke-dasharray:none;stroke-dashoffset:0"
       sodipodi:type="arc" />
    <path
       sodipodi:type="arc"
       style="fill:none;stroke:#ffffff;stroke-width:3.38809966999999990;stroke-miterlimit:4;stroke-opacity:1;stroke-dasharray:none;stroke-dashoffset:0"
       id="path4083"
       sodipodi:cx="125.82713"
       sodipodi:cy="408.95813"
       sodipodi:rx="5.5558391"
       sodipodi:ry="5.5558391"
       d="m 131.38297,408.95813 a 5.5558391,5.5558391 0 1 1 -11.11168,0 5.5558391,5.5558391 0 1 1 11.11168,0 z"
       transform="matrix(1.4757535,0,0,1.4757535,-174.46174,-569.54584)" />
    <g
       id="g5078">
      <path
         sodipodi:nodetypes="cc"
         style="fill:none;stroke:#ffffff;stroke-width:5;stroke-linecap:butt;stroke-linejoin:miter;stroke-miterlimit:4;stroke-opacity:1;stroke-dasharray:none"
         d="M 65.374275,46.927922 78.17778,13.991849"
         id="path5068"
         inkscape:connector-curvature="0" />
      <path
         style="fill:none;stroke:#ffffff;stroke-width:5;stroke-linecap:butt;stroke-linejoin:miter;stroke-miterlimit:4;stroke-opacity:1;stroke-dasharray:none"
         d="M 51.212281,66.307488 27.360488,86.805113"
         id="path5070"
         inkscape:connector-curvature="0" />
      <path
         style="fill:none;stroke:#ffffff;stroke-width:5;stroke-linecap:butt;stroke-linejoin:miter;stroke-miterlimit:4;stroke-opacity:1;stroke-dasharray:none"
         d="M 69.846472,56.617705 100.0339,66.307502"
         id="path5072"
         sodipodi:nodetypes="cc"
         inkscape:connector-curvature="0" />
      <path
         style="fill:none;stroke:#ffffff;stroke-width:5;stroke-linecap:butt;stroke-linejoin:miter;stroke-miterlimit:4;stroke-opacity:1;stroke-dasharray:none"
         d="M 51.212281,46.927922 38.913705,7.0507309"
         id="path5074"
         inkscape:connector-curvature="0" />
      <path
         sodipodi:nodetypes="cc"
         style="fill:none;stroke:#ffffff;stroke-width:5;stroke-linecap:butt;stroke-linejoin:miter;stroke-miterlimit:4;stroke-opacity:1;stroke-dasharray:none"
         d="M 47.485442,54.754286 13.555636,35.926268"
         id="path5076"
         inkscape:connector-curvature="0" />
    </g>
    <path
       sodipodi:type="arc"
       style="display:inline;fill:none;fill-opacity:1;stroke:#ffffff;stroke-opacity:1;stroke-width:3.38809971;stroke-miterlimit:4;stroke-dasharray:none"
       id="path5106"
       sodipodi:cx="125.82713"
       sodipodi:cy="408.95813"
       sodipodi:rx="14.647212"
       sodipodi:ry="14.647212"
       d="m 140.47435,408.95813 a 14.647212,14.647212 0 1 1 -29.29443,0 14.647212,14.647212 0 1 1 29.29443,0 z"
       transform="matrix(1.4757535,0,0,1.4757535,-128.04876,-547.9286)" />
  </g>
  <g
     inkscape:label="Layer 1"
     inkscape:groupmode="layer"
     id="layer1"
     transform="translate(-86.255248,-403.93052)"
     style="display:inline">
    <path
       inkscape:connector-curvature="0"
       id="path5091"
       d="M 65.374275,46.927922 78.17778,13.991849"
       style="fill:none;stroke:#000000;stroke-width:2;stroke-linecap:butt;stroke-linejoin:miter;stroke-miterlimit:4;stroke-opacity:1;stroke-dasharray:none;display:inline"
       sodipodi:nodetypes="cc"
       transform="translate(86.255248,403.93052)" />
    <path
       inkscape:connector-curvature="0"
       id="path5093"
       d="M 51.212281,66.307488 27.360488,86.805113"
       style="fill:none;stroke:#000000;stroke-width:2;stroke-linecap:butt;stroke-linejoin:miter;stroke-miterlimit:4;stroke-opacity:1;stroke-dasharray:none;display:inline"
       transform="translate(86.255248,403.93052)" />
    <path
       inkscape:connector-curvature="0"
       sodipodi:nodetypes="cc"
       id="path5095"
       d="M 69.846472,56.617705 100.0339,66.307502"
       style="fill:none;stroke:#000000;stroke-width:2;stroke-linecap:butt;stroke-linejoin:miter;stroke-miterlimit:4;stroke-opacity:1;stroke-dasharray:none;display:inline"
       transform="translate(86.255248,403.93052)" />
    <path
       inkscape:connector-curvature="0"
       id="path5097"
       d="M 51.212281,46.927922 38.913705,7.0507309"
       style="fill:none;stroke:#000000;stroke-width:2;stroke-linecap:butt;stroke-linejoin:miter;stroke-miterlimit:4;stroke-opacity:1;stroke-dasharray:none;display:inline"
       transform="translate(86.255248,403.93052)" />
    <path
       sodipodi:type="arc"
       style="fill:#ffff14;fill-opacity:1;stroke:#000000;stroke-opacity:1"
       id="path3159"
       sodipodi:cx="125.82713"
       sodipodi:cy="408.95813"
       sodipodi:rx="5.5558391"
       sodipodi:ry="5.5558391"
       d="m 131.38297,408.95813 a 5.5558391,5.5558391 0 1 1 -11.11168,0 5.5558391,5.5558391 0 1 1 11.11168,0 z"
       transform="matrix(1.4757535,0,0,1.4757535,-20.237408,-188.35393)" />
    <path
       inkscape:connector-curvature="0"
       id="path5099"
       d="M 47.485442,54.754286 13.555636,35.926268"
       style="fill:none;stroke:#000000;stroke-width:2;stroke-linecap:butt;stroke-linejoin:miter;stroke-miterlimit:4;stroke-opacity:1;stroke-dasharray:none;display:inline"
       sodipodi:nodetypes="cc"
       transform="translate(86.255248,403.93052)" />
    <path
       transform="matrix(1.4757535,0,0,1.4757535,-41.793511,-143.99808)"
       d="m 140.47435,408.95813 a 14.647212,14.647212 0 1 1 -29.29443,0 14.647212,14.647212 0 1 1 29.29443,0 z"
       sodipodi:ry="14.647212"
       sodipodi:rx="14.647212"
       sodipodi:cy="408.95813"
       sodipodi:cx="125.82713"
       id="path2387"
       style="fill:#f30a0a;fill-opacity:1;stroke:#000000;stroke-opacity:1"
       sodipodi:type="arc" />
    <path
       transform="matrix(1.4757535,0,0,1.4757535,10.922137,-135.46463)"
       d="m 133.40328,408.95813 a 7.5761442,7.5761442 0 1 1 -15.15229,0 7.5761442,7.5761442 0 1 1 15.15229,0 z"
       sodipodi:ry="7.5761442"
       sodipodi:rx="7.5761442"
       sodipodi:cy="408.95813"
       sodipodi:cx="125.82713"
       id="path3167"
       style="fill:#ffff14;fill-opacity:1;stroke:#000000;stroke-opacity:1"
       sodipodi:type="arc" />
    <path
       sodipodi:type="arc"
       style="fill:#ffff14;fill-opacity:1;stroke:#000000;stroke-opacity:1"
       id="path3169"
       sodipodi:cx="125.82713"
       sodipodi:cy="408.95813"
       sodipodi:rx="7.5761442"
       sodipodi:ry="7.5761442"
       d="m 133.40328,408.95813 a 7.5761442,7.5761442 0 1 1 -15.15229,0 7.5761442,7.5761442 0 1 1 15.15229,0 z"
       transform="matrix(1.6584789,0,0,1.6584789,-79.654393,-256.39236)" />
    <path
       sodipodi:type="arc"
       style="fill:#ffff14;fill-opacity:1;stroke:#000000;stroke-opacity:1"
       id="path3173"
       sodipodi:cx="125.82713"
       sodipodi:cy="408.95813"
       sodipodi:rx="7.5761442"
       sodipodi:ry="7.5761442"
       d="m 133.40328,408.95813 a 7.5761442,7.5761442 0 1 1 -15.15229,0 7.5761442,7.5761442 0 1 1 15.15229,0 z"
       transform="matrix(1.4757535,0,0,1.4757535,-81.195276,-110.97023)" />
    <path
       transform="matrix(1.4757535,0,0,1.4757535,-88.206489,-165.61532)"
       d="m 131.38297,408.95813 a 5.5558391,5.5558391 0 1 1 -11.11168,0 5.5558391,5.5558391 0 1 1 11.11168,0 z"
       sodipodi:ry="5.5558391"
       sodipodi:rx="5.5558391"
       sodipodi:cy="408.95813"
       sodipodi:cx="125.82713"
       id="path3183"
       style="fill:#ffff14;fill-opacity:1;stroke:#000000;stroke-opacity:1"
       sodipodi:type="arc" />
  </g>
</svg>
